<svg width="587.000000" height="290.000000" viewBox="0 0 587 290" fill="none" xmlns="http://www.w3.org/2000/svg" xmlns:xlink="http://www.w3.org/1999/xlink">
	<desc>
			Created with Pixso.
	</desc>
	<g clip-path="url(#clip2_7)">
		<path id="path" d="M467.458 123.875L480.042 123.875L480.042 136.458L467.458 136.458L467.458 167.917C467.458 168.743 467.378 169.561 467.217 170.372C467.055 171.182 466.817 171.969 466.5 172.732C466.184 173.495 465.797 174.221 465.338 174.908C464.879 175.595 464.357 176.23 463.773 176.814C463.189 177.399 462.553 177.92 461.866 178.379C461.179 178.838 460.454 179.226 459.69 179.542C458.927 179.858 458.14 180.097 457.33 180.258C456.52 180.419 455.701 180.5 454.875 180.5C455.701 180.5 456.52 180.581 457.33 180.742C458.14 180.903 458.927 181.142 459.69 181.458C460.454 181.774 461.179 182.162 461.866 182.621C462.553 183.08 463.189 183.601 463.773 184.186C464.357 184.77 464.879 185.405 465.338 186.092C465.797 186.779 466.184 187.505 466.5 188.268C466.817 189.031 467.055 189.818 467.217 190.628C467.378 191.439 467.458 192.257 467.458 193.083L467.458 224.542L480.042 224.542L480.042 237.125L467.458 237.125C460.726 235.426 454.875 231.462 454.875 224.542L454.875 199.375C454.875 198.549 454.794 197.73 454.633 196.92C454.472 196.11 454.233 195.323 453.917 194.56C453.601 193.796 453.213 193.071 452.754 192.384C452.295 191.697 451.774 191.061 451.189 190.477C450.605 189.893 449.97 189.371 449.283 188.912C448.596 188.453 447.87 188.066 447.107 187.75C446.344 187.433 445.557 187.195 444.747 187.033C443.936 186.872 443.118 186.792 442.292 186.792L436 186.792L436 174.208L442.292 174.208C443.118 174.208 443.936 174.128 444.747 173.967C445.557 173.805 446.344 173.567 447.107 173.25C447.87 172.934 448.596 172.547 449.283 172.088C449.97 171.629 450.605 171.107 451.189 170.523C451.774 169.939 452.295 169.303 452.754 168.616C453.213 167.929 453.601 167.204 453.917 166.44C454.233 165.677 454.472 164.89 454.633 164.08C454.794 163.27 454.875 162.451 454.875 161.625L454.875 136.458C454.875 135.632 454.956 134.814 455.117 134.003C455.278 133.193 455.517 132.406 455.833 131.643C456.149 130.88 456.537 130.154 456.996 129.467C457.455 128.78 457.976 128.145 458.561 127.561C459.145 126.976 459.78 126.455 460.467 125.996C461.154 125.537 461.88 125.149 462.643 124.833C463.406 124.517 464.193 124.278 465.003 124.117C465.814 123.956 466.632 123.875 467.458 123.875ZM555.542 123.875C556.368 123.875 557.186 123.956 557.997 124.117C558.807 124.278 559.594 124.517 560.357 124.833C561.12 125.149 561.846 125.537 562.533 125.996C563.22 126.455 563.855 126.976 564.439 127.561C565.024 128.145 565.545 128.78 566.004 129.467C566.463 130.154 566.851 130.88 567.167 131.643C567.483 132.406 567.722 133.193 567.883 134.003C568.044 134.814 568.125 135.632 568.125 136.458L568.125 161.625C568.125 162.451 568.206 163.27 568.367 164.08C568.528 164.89 568.767 165.677 569.083 166.44C569.399 167.204 569.787 167.929 570.246 168.616C570.705 169.303 571.226 169.939 571.811 170.523C572.395 171.107 573.03 171.629 573.717 172.088C574.404 172.547 575.13 172.934 575.893 173.25C576.656 173.567 577.443 173.805 578.253 173.967C579.064 174.128 579.882 174.208 580.708 174.208L587 174.208L587 186.792L580.708 186.792C579.882 186.792 579.064 186.872 578.253 187.033C577.443 187.195 576.656 187.433 575.893 187.75C575.13 188.066 574.404 188.453 573.717 188.912C573.03 189.371 572.395 189.893 571.811 190.477C571.226 191.061 570.705 191.697 570.246 192.384C569.787 193.071 569.399 193.796 569.083 194.56C568.767 195.323 568.528 196.11 568.367 196.92C568.206 197.73 568.125 198.549 568.125 199.375L568.125 224.542C568.125 225.368 568.044 226.186 567.883 226.997C567.722 227.807 567.483 228.594 567.167 229.357C566.851 230.12 566.463 230.846 566.004 231.533C565.545 232.22 565.024 232.855 564.439 233.439C563.855 234.024 563.22 234.545 562.533 235.004C561.846 235.463 561.12 235.851 560.357 236.167C559.594 236.483 558.807 236.722 557.997 236.883C557.186 237.044 556.368 237.125 555.542 237.125L542.958 237.125L542.958 224.542L555.542 224.542L555.542 193.083C555.542 192.257 555.622 191.439 555.783 190.628C555.945 189.818 556.183 189.031 556.5 188.268C556.816 187.505 557.203 186.779 557.662 186.092C558.121 185.405 558.643 184.77 559.227 184.186C559.811 183.601 560.447 183.08 561.134 182.621C561.821 182.162 562.546 181.774 563.31 181.458C564.073 181.142 564.86 180.903 565.67 180.742C566.48 180.581 567.299 180.5 568.125 180.5C567.299 180.5 566.48 180.419 565.67 180.258C564.86 180.097 564.073 179.858 563.31 179.542C562.546 179.226 561.821 178.838 561.134 178.379C560.447 177.92 559.811 177.399 559.227 176.814C558.643 176.23 558.121 175.595 557.662 174.908C557.203 174.221 556.816 173.495 556.5 172.732C556.183 171.969 555.945 171.182 555.783 170.372C555.622 169.561 555.542 168.743 555.542 167.917L555.542 136.458L542.958 136.458L542.958 123.875L555.542 123.875ZM511.5 199.375C512.334 199.375 513.137 199.535 513.908 199.854C514.679 200.173 515.359 200.628 515.949 201.218C516.539 201.808 516.993 202.488 517.313 203.259C517.632 204.03 517.792 204.832 517.792 205.667C517.792 206.501 517.632 207.304 517.313 208.074C516.993 208.845 516.539 209.526 515.949 210.116C515.359 210.706 514.679 211.16 513.908 211.479C513.137 211.799 512.334 211.958 511.5 211.958C510.666 211.958 509.863 211.799 509.092 211.479C508.321 211.16 507.641 210.706 507.051 210.116C506.461 209.526 506.007 208.845 505.687 208.074C505.368 207.304 505.208 206.501 505.208 205.667C505.208 204.832 505.368 204.03 505.687 203.259C506.007 202.488 506.461 201.808 507.051 201.218C507.641 200.628 508.321 200.173 509.092 199.854C509.863 199.535 510.666 199.375 511.5 199.375ZM486.333 199.375C487.168 199.375 487.97 199.535 488.741 199.854C489.512 200.173 490.192 200.628 490.782 201.218C491.372 201.808 491.827 202.488 492.146 203.259C492.465 204.03 492.625 204.832 492.625 205.667C492.625 206.501 492.465 207.304 492.146 208.074C491.827 208.845 491.372 209.526 490.782 210.116C490.192 210.706 489.512 211.16 488.741 211.479C487.97 211.799 487.168 211.958 486.333 211.958C485.499 211.958 484.696 211.799 483.926 211.479C483.155 211.16 482.474 210.706 481.884 210.116C481.294 209.526 480.84 208.845 480.521 208.074C480.201 207.304 480.042 206.501 480.042 205.667C480.042 204.832 480.201 204.03 480.521 203.259C480.84 202.488 481.294 201.808 481.884 201.218C482.474 200.628 483.155 200.173 483.926 199.854C484.696 199.535 485.499 199.375 486.333 199.375ZM536.667 199.375C537.501 199.375 538.304 199.535 539.074 199.854C539.845 200.173 540.526 200.628 541.116 201.218C541.706 201.808 542.16 202.488 542.479 203.259C542.799 204.03 542.958 204.832 542.958 205.667C542.958 206.501 542.799 207.304 542.479 208.074C542.16 208.845 541.706 209.526 541.116 210.116C540.526 210.706 539.845 211.16 539.074 211.479C538.304 211.799 537.501 211.958 536.667 211.958C535.832 211.958 535.03 211.799 534.259 211.479C533.488 211.16 532.808 210.706 532.218 210.116C531.628 209.526 531.173 208.845 530.854 208.074C530.535 207.304 530.375 206.501 530.375 205.667C530.375 204.832 530.535 204.03 530.854 203.259C531.173 202.488 531.628 201.808 532.218 201.218C532.808 200.628 533.488 200.173 534.259 199.854C535.03 199.535 535.832 199.375 536.667 199.375Z" fill-rule="evenodd" fill="#FBC02D"/>
	</g>
	<path id="ejc-cli" d="M252.626 123.721C252.626 125.373 251.264 126.604 249.462 126.604C247.625 126.604 246.289 125.373 246.289 123.721C246.289 121.989 247.625 120.838 249.462 120.838C251.264 120.838 252.626 121.989 252.626 123.721ZM324.88 123.721C324.88 125.373 323.544 126.604 321.751 126.604C319.914 126.604 318.578 125.373 318.578 123.721C318.578 121.989 319.914 120.838 321.751 120.838C323.544 120.838 324.88 121.989 324.88 123.721ZM315.447 150.035C314.832 150.29 313.935 150.501 312.714 150.501C309.04 150.501 307.748 148.093 307.748 144.349L307.748 121.269L313.004 121.269L313.004 144.604C313.004 145.79 313.575 146.186 314.076 146.186C314.296 146.186 314.436 146.186 314.797 146.115L315.447 150.035ZM241.65 148.269C239.664 149.64 237.115 150.501 234.593 150.501C228.977 150.501 224.582 146.581 224.582 139.954C224.582 133.406 229.152 129.337 233.978 129.337C239.523 129.337 242.406 133.406 242.406 138.987C242.406 139.954 242.292 140.93 242.151 141.396L229.732 141.396C230.163 144.709 232.325 146.432 235.313 146.432C236.966 146.432 238.407 145.931 239.849 145.034L241.65 148.269ZM272.896 148.058C270.989 149.745 268.537 150.501 266.304 150.501C260.732 150.501 256.478 146.616 256.478 139.954C256.478 133.222 261.303 129.337 266.779 129.337C269.257 129.337 271.165 130.304 272.641 131.569L270.127 134.988C269.117 134.127 268.176 133.652 267.025 133.652C263.966 133.652 261.883 136.14 261.883 139.954C261.883 143.733 263.966 146.186 266.884 146.186C268.326 146.186 269.688 145.5 270.804 144.568L272.896 148.058ZM303.928 148.058C302.021 149.745 299.569 150.501 297.336 150.501C291.764 150.501 287.51 146.616 287.51 139.954C287.51 133.222 292.335 129.337 297.811 129.337C300.289 129.337 302.197 130.304 303.673 131.569L301.159 134.988C300.149 134.127 299.208 133.652 298.057 133.652C294.998 133.652 292.915 136.14 292.915 139.954C292.915 143.733 294.998 146.186 297.916 146.186C299.358 146.186 300.72 145.5 301.836 144.568L303.928 148.058ZM252.09 150.501C252.09 154.825 250.429 158.244 245.357 158.244C243.811 158.244 242.765 157.989 241.974 157.708L242.905 153.779C243.45 153.964 243.986 154.069 244.566 154.069C246.289 154.069 246.799 152.918 246.799 150.65L246.799 129.838L252.09 129.838L252.09 150.501ZM324.344 150L319.088 150L319.088 129.838L324.344 129.838L324.344 150ZM234.048 133.441C231.93 133.441 230.058 134.953 229.662 137.906L237.871 137.906C237.871 135.164 236.641 133.441 234.048 133.441ZM284.201 141.58L274.375 141.58L274.375 137.792L284.201 137.792L284.201 141.58Z" fill="#1296DBFF"/>
	<path id="path" d="M302.619 199.742L233 198.17L233 205.723L302.619 205.723L284.75 222.164L291.336 228.75L317.211 202.875L304.509 189.938L291.807 177L285.22 183.586L302.619 199.742Z" fill-rule="evenodd" fill="#1296DB"/>
	<g clip-path="url(#clip2_13)">
		<path id="path" d="M230 18.75L230 101.25L320 101.25L320 18.75L230 18.75ZM237.5 26.25L312.5 26.25L312.5 33.75L237.5 33.75L237.5 26.25ZM237.5 41.25L312.5 41.25L312.5 93.75L237.5 93.75L237.5 41.25ZM257.071 51.6787L251.675 57.075L262.108 67.5L251.682 77.9287L257.071 83.3212L270.196 70.1963L272.772 67.5L270.196 64.8037L257.071 51.6787ZM275 75L275 82.5L297.5 82.5L297.5 75L275 75Z" fill-rule="nonzero" fill="#1296DB"/>
	</g>
	<g clip-path="url(#clip2_2)">
		<path id="path" d="M16.3516 123C11.3203 123 7.1875 127.133 7.1875 132.164L7.1875 228.836C7.1875 233.867 11.3203 238 16.3516 238L98.6485 238C103.68 238 107.813 233.867 107.813 228.836L107.813 159.477L73.8516 123L16.3516 123Z" fill-rule="evenodd" fill="#45B058"/>
		<path id="path" d="M42.0469 219.852C41.6875 219.852 41.3281 219.672 41.1484 219.492L34.5 210.508L27.6719 219.492C27.4922 219.672 27.1328 219.852 26.7734 219.852C26.0547 219.852 25.5156 219.313 25.5156 218.594C25.5156 218.414 25.5156 218.055 25.6953 217.875L32.7031 208.711L26.2344 199.906C26.0547 199.727 25.875 199.547 25.875 199.188C25.875 198.648 26.4141 197.93 27.1328 197.93C27.6719 197.93 28.0312 198.109 28.2109 198.469L34.5 206.734L40.6094 198.469C40.7891 198.109 41.1484 197.93 41.5078 197.93C42.2266 197.93 42.9453 198.469 42.9453 199.188C42.9453 199.547 42.7656 199.727 42.7656 199.906L36.1172 208.531L43.125 217.875C43.3047 218.055 43.4844 218.414 43.4844 218.594C43.4844 219.313 42.7656 219.852 42.0469 219.852ZM60.0156 219.672L50.3125 219.672C49.2344 219.672 48.3359 218.773 48.3359 217.695L48.3359 199.188C48.3359 198.469 48.875 197.93 49.7734 197.93C50.4922 197.93 51.0312 198.469 51.0312 199.188L51.0312 217.336L60.0156 217.336C60.7344 217.336 61.2734 217.875 61.2734 218.414C61.2734 219.133 60.7344 219.672 60.0156 219.672ZM72.5938 220.031C69.3594 220.031 66.8438 218.953 65.0469 217.336C64.6875 217.156 64.6875 216.797 64.6875 216.438C64.6875 215.719 65.0469 215 65.9453 215C66.125 215 66.4844 215.18 66.6641 215.359C68.1016 216.617 70.2578 217.695 72.7734 217.695C76.5469 217.695 77.8047 215.539 77.8047 213.922C77.8047 208.352 65.0469 211.406 65.0469 203.859C65.0469 200.266 68.1016 197.75 72.4141 197.75C75.1094 197.75 77.625 198.648 79.2422 200.086C79.6016 200.266 79.7812 200.625 79.7812 200.984C79.7812 201.703 79.2422 202.422 78.5234 202.422C78.3438 202.422 77.9844 202.242 77.8047 202.063C76.1875 200.805 74.2109 200.266 72.2344 200.266C69.5391 200.266 67.7422 201.523 67.7422 203.68C67.7422 208.531 80.5 205.656 80.5 213.742C80.5 216.797 78.3438 220.031 72.5938 220.031Z" fill-rule="evenodd" fill="#FFFFFF"/>
		<path id="path" d="M107.812 159.656L107.812 161.453L84.8125 161.453C84.8125 161.453 73.3125 159.117 73.6718 149.234C73.6718 149.234 74.0312 159.656 84.4531 159.656L107.812 159.656Z" fill-rule="evenodd" fill="#349C42"/>
		<path id="path" d="M73.6719 123L73.6719 149.234C73.6719 152.109 75.8282 159.656 84.8125 159.656L107.813 159.656L73.6719 123Z" fill-rule="evenodd" fill="#FFFFFF"/>
	</g>
	<defs>
		<clipPath id="clip2_7">
			<rect id="json" width="150.999985" height="151.000000" transform="translate(436.000000 105.000000)" fill="white"/>
		</clipPath>
		<clipPath id="clip2_13">
			<rect id="terminal-solid" width="120.000000" height="120.000000" transform="translate(215.000000 0.000000)" fill="white"/>
		</clipPath>
		<clipPath id="clip2_2">
			<rect id="excel" width="115.000031" height="115.000000" transform="translate(0.000000 123.000000)" fill="white"/>
		</clipPath>
	</defs>
</svg>
