<svg width="230.000000" height="107.090973" viewBox="0 0 230 107.091" fill="none" xmlns="http://www.w3.org/2000/svg" xmlns:xlink="http://www.w3.org/1999/xlink">
	<desc>
			Created with Pixso.
	</desc>
	<path id="path" d="M103.297 21.2L124.953 21.2L124.953 2.8L103.297 2.8L103.297 21.2ZM101 0L127.25 0L127.25 24L101 24L101 0ZM107.225 18.048L105.922 16.46L109.877 11.636L105.922 6.814L107.225 5.226L112.484 11.636L107.225 18.048ZM122.203 18.462L114.125 18.462L114.125 16L122.202 16L122.203 18.462Z" fill-rule="evenodd" fill="#262626"/>
	<path id="ejc-cli" d="M132.433 45.0878C132.2 45.1801 131.91 45.2328 131.48 45.2328C130.258 45.2328 129.752 44.4418 129.752 43.0576L129.752 30.6738L131.392 30.6738L131.392 43.163C131.392 43.6684 131.607 43.8661 131.857 43.8661C131.95 43.8661 132.02 43.8661 132.2 43.831L132.433 45.0878ZM102.606 32.1459C102.606 32.7612 102.105 33.2094 101.472 33.2094C100.826 33.2094 100.339 32.7612 100.339 32.1459C100.339 31.4824 100.826 31.0869 101.472 31.0869C102.105 31.0869 102.606 31.4824 102.606 32.1459ZM136.842 32.1459C136.842 32.7612 136.359 33.2094 135.709 33.2094C135.063 33.2094 134.575 32.7612 134.575 32.1459C134.575 31.4824 135.063 31.0869 135.709 31.0869C136.359 31.0869 136.842 31.4824 136.842 32.1459ZM97.8374 44.2265C96.9761 44.7846 95.9302 45.2328 94.5986 45.2328C92.0059 45.2328 89.9185 43.3432 89.9185 40.122C89.9185 36.9536 92.0586 34.976 94.3262 34.976C96.8135 34.976 98.2153 36.7734 98.2153 39.5639C98.2153 39.9243 98.1802 40.267 98.145 40.4999L91.5576 40.4999C91.6631 42.5873 92.9419 43.9189 94.7964 43.9189C95.75 43.9189 96.5234 43.6332 97.2441 43.1454L97.8374 44.2265ZM112.579 43.9936C111.718 44.7846 110.602 45.2328 109.428 45.2328C106.84 45.2328 104.84 43.3608 104.84 40.122C104.84 36.8657 107.055 34.976 109.556 34.976C110.835 34.976 111.718 35.5121 112.417 36.1274L111.573 37.226C110.997 36.7031 110.404 36.3427 109.608 36.3427C107.846 36.3427 106.55 37.872 106.55 40.122C106.55 42.372 107.776 43.8661 109.573 43.8661C110.474 43.8661 111.265 43.4531 111.876 42.895L112.579 43.9936ZM127.591 43.9936C126.73 44.7846 125.613 45.2328 124.44 45.2328C121.852 45.2328 119.852 43.3608 119.852 40.122C119.852 36.8657 122.067 34.976 124.568 34.976C125.846 34.976 126.73 35.5121 127.428 36.1274L126.585 37.226C126.009 36.7031 125.416 36.3427 124.62 36.3427C122.858 36.3427 121.562 37.872 121.562 40.122C121.562 42.372 122.788 43.8661 124.585 43.8661C125.486 43.8661 126.277 43.4531 126.888 42.895L127.591 43.9936ZM102.285 46.1161C102.285 48.1157 101.547 49.3725 99.6179 49.3725C99.0247 49.3725 98.5237 49.2495 98.1809 49.122L98.5061 47.8608C98.7566 47.9531 99.0818 48.041 99.4202 48.041C100.413 48.041 100.646 47.3027 100.646 46.1161L100.646 35.2265L102.285 35.2265L102.285 46.1161ZM136.522 44.9999L134.882 44.9999L134.882 35.2265L136.522 35.2265L136.522 44.9999ZM94.3481 36.29C92.9595 36.29 91.7378 37.4018 91.54 39.331L96.7739 39.331C96.7739 37.3491 95.8774 36.29 94.3481 36.29ZM118.124 40.5878L113.514 40.5878L113.514 39.331L118.124 39.331L118.124 40.5878Z" fill="#000000FF"/>
	<g clip-path="url(#clip2_11)">
		<path id="path" d="M7.90311 36C5.54062 36 3.59999 37.9406 3.59999 40.3031L3.59999 85.6969C3.59999 88.0594 5.54062 90 7.90311 90L46.5469 90C48.9094 90 50.85 88.0594 50.85 85.6969L50.85 53.1281L34.9031 36L7.90311 36Z" fill-rule="evenodd" fill="#45B058"/>
		<path id="path" d="M19.7438 81.4781C19.575 81.4781 19.4062 81.3938 19.3219 81.3094L16.2 77.0906L12.9937 81.3094C12.9094 81.3938 12.7406 81.4781 12.5719 81.4781C12.2344 81.4781 11.9812 81.225 11.9812 80.8875C11.9812 80.8031 11.9812 80.6344 12.0656 80.55L15.3562 76.2469L12.3187 72.1125C12.2344 72.0281 12.15 71.9438 12.15 71.775C12.15 71.5219 12.4031 71.1844 12.7406 71.1844C12.9937 71.1844 13.1625 71.2688 13.2469 71.4375L16.2 75.3188L19.0687 71.4375C19.1531 71.2688 19.3219 71.1844 19.4906 71.1844C19.8281 71.1844 20.1656 71.4375 20.1656 71.775C20.1656 71.9438 20.0812 72.0281 20.0812 72.1125L16.9594 76.1625L20.25 80.55C20.3344 80.6344 20.4187 80.8031 20.4187 80.8875C20.4187 81.225 20.0812 81.4781 19.7438 81.4781ZM28.1813 81.3938L23.625 81.3938C23.1188 81.3938 22.6969 80.9719 22.6969 80.4656L22.6969 71.775C22.6969 71.4375 22.95 71.1844 23.3719 71.1844C23.7094 71.1844 23.9625 71.4375 23.9625 71.775L23.9625 80.2969L28.1813 80.2969C28.5188 80.2969 28.7719 80.55 28.7719 80.8031C28.7719 81.1406 28.5188 81.3938 28.1813 81.3938ZM34.0875 81.5625C32.5688 81.5625 31.3875 81.0563 30.5437 80.2969C30.375 80.2125 30.375 80.0438 30.375 79.875C30.375 79.5375 30.5437 79.2 30.9656 79.2C31.05 79.2 31.2188 79.2844 31.3031 79.3688C31.9781 79.9594 32.9906 80.4656 34.1719 80.4656C35.9437 80.4656 36.5344 79.4531 36.5344 78.6938C36.5344 76.0781 30.5438 77.5125 30.5438 73.9688C30.5438 72.2813 31.9781 71.1 34.0031 71.1C35.2688 71.1 36.45 71.5219 37.2094 72.1969C37.3781 72.2812 37.4625 72.45 37.4625 72.6188C37.4625 72.9563 37.2094 73.2938 36.8719 73.2938C36.7875 73.2938 36.6188 73.2094 36.5344 73.125C35.775 72.5344 34.8469 72.2812 33.9187 72.2812C32.6531 72.2812 31.8094 72.8719 31.8094 73.8844C31.8094 76.1625 37.8 74.8125 37.8 78.6094C37.8 80.0438 36.7875 81.5625 34.0875 81.5625Z" fill-rule="nonzero" fill="#FFFFFF"/>
		<path id="path" d="M50.625 53.2125L50.625 54.0563L39.825 54.0563C39.825 54.0563 34.425 52.9594 34.5938 48.3188C34.5938 48.3188 34.7625 53.2125 39.6563 53.2125L50.625 53.2125Z" fill-rule="nonzero" fill="#349C42"/>
		<path id="path" d="M34.5938 36L34.5938 48.3188C34.5938 49.6687 35.6062 53.2125 39.825 53.2125L50.625 53.2125L34.5938 36Z" fill-rule="nonzero" fill="#FFFFFF"/>
	</g>
	<path id="path" d="M182.5 43L187.5 43L187.5 48L182.5 48L182.5 60.5C182.5 60.8283 182.468 61.1535 182.404 61.4754C182.34 61.7975 182.245 62.1101 182.119 62.4134C181.994 62.7167 181.84 63.0049 181.657 63.2778C181.475 63.5508 181.268 63.8034 181.036 64.0355C180.803 64.2677 180.551 64.475 180.278 64.6573C180.005 64.8398 179.717 64.9938 179.413 65.1194C179.11 65.245 178.797 65.3399 178.475 65.4039C178.153 65.468 177.828 65.5 177.5 65.5C177.828 65.5 178.153 65.532 178.475 65.5961C178.797 65.6601 179.11 65.755 179.413 65.8806C179.717 66.0062 180.005 66.1603 180.278 66.3427C180.551 66.525 180.803 66.7323 181.036 66.9645C181.268 67.1966 181.475 67.4492 181.657 67.7222C181.84 67.9951 181.994 68.2833 182.119 68.5866C182.245 68.8899 182.34 69.2025 182.404 69.5246C182.468 69.8465 182.5 70.1717 182.5 70.5L182.5 83L187.5 83L187.5 88L182.5 88C179.825 87.325 177.5 85.75 177.5 83L177.5 73C177.5 72.6717 177.468 72.3465 177.404 72.0246C177.34 71.7025 177.245 71.3899 177.119 71.0866C176.994 70.7833 176.84 70.4951 176.657 70.2222C176.475 69.9492 176.268 69.6966 176.036 69.4645C175.803 69.2323 175.551 69.025 175.278 68.8427C175.005 68.6602 174.717 68.5062 174.413 68.3806C174.11 68.255 173.797 68.1601 173.475 68.0961C173.153 68.032 172.828 68 172.5 68L170 68L170 63L172.5 63C172.828 63 173.153 62.968 173.475 62.9039C173.797 62.8399 174.11 62.745 174.413 62.6194C174.717 62.4938 175.005 62.3397 175.278 62.1573C175.551 61.9749 175.803 61.7677 176.036 61.5355C176.268 61.3034 176.475 61.0508 176.657 60.7778C176.84 60.5049 176.994 60.2167 177.119 59.9134C177.245 59.6101 177.34 59.2974 177.404 58.9754C177.468 58.6535 177.5 58.3283 177.5 58L177.5 48C177.5 47.6717 177.532 47.3465 177.596 47.0246C177.66 46.7025 177.755 46.3899 177.881 46.0866C178.006 45.7833 178.16 45.4951 178.343 45.2222C178.525 44.9492 178.732 44.6966 178.964 44.4645C179.197 44.2323 179.449 44.0251 179.722 43.8427C179.995 43.6603 180.283 43.5062 180.587 43.3806C180.89 43.255 181.203 43.1601 181.525 43.0961C181.847 43.032 182.172 43 182.5 43ZM217.5 43C217.828 43 218.153 43.032 218.475 43.0961C218.797 43.1601 219.11 43.255 219.413 43.3806C219.717 43.5062 220.005 43.6603 220.278 43.8427C220.551 44.0251 220.803 44.2323 221.036 44.4645C221.268 44.6966 221.475 44.9492 221.657 45.2222C221.84 45.4951 221.994 45.7833 222.119 46.0866C222.245 46.3899 222.34 46.7025 222.404 47.0246C222.468 47.3465 222.5 47.6717 222.5 48L222.5 58C222.5 58.3283 222.532 58.6535 222.596 58.9754C222.66 59.2975 222.755 59.6101 222.881 59.9134C223.006 60.2167 223.16 60.5049 223.343 60.7778C223.525 61.0508 223.732 61.3034 223.964 61.5355C224.197 61.7677 224.449 61.975 224.722 62.1573C224.995 62.3398 225.283 62.4938 225.587 62.6194C225.89 62.745 226.203 62.8399 226.525 62.9039C226.847 62.968 227.172 63 227.5 63L230 63L230 68L227.5 68C227.172 68 226.847 68.032 226.525 68.0961C226.203 68.1601 225.89 68.255 225.587 68.3806C225.283 68.5062 224.995 68.6602 224.722 68.8427C224.449 69.0251 224.197 69.2323 223.964 69.4645C223.732 69.6966 223.525 69.9492 223.343 70.2222C223.16 70.4951 223.006 70.7833 222.881 71.0866C222.755 71.3899 222.66 71.7026 222.596 72.0246C222.532 72.3465 222.5 72.6717 222.5 73L222.5 83C222.5 83.3283 222.468 83.6535 222.404 83.9754C222.34 84.2975 222.245 84.6101 222.119 84.9134C221.994 85.2167 221.84 85.5049 221.657 85.7778C221.475 86.0508 221.268 86.3034 221.036 86.5355C220.803 86.7677 220.551 86.9749 220.278 87.1573C220.005 87.3398 219.717 87.4938 219.413 87.6194C219.11 87.745 218.797 87.8399 218.475 87.9039C218.153 87.968 217.828 88 217.5 88L212.5 88L212.5 83L217.5 83L217.5 70.5C217.5 70.1717 217.532 69.8465 217.596 69.5246C217.66 69.2026 217.755 68.8899 217.881 68.5866C218.006 68.2833 218.16 67.9951 218.343 67.7222C218.525 67.4492 218.732 67.1966 218.964 66.9645C219.197 66.7323 219.449 66.5251 219.722 66.3427C219.995 66.1603 220.283 66.0062 220.587 65.8806C220.89 65.755 221.203 65.6601 221.525 65.5961C221.847 65.532 222.172 65.5 222.5 65.5C222.172 65.5 221.847 65.468 221.525 65.4039C221.203 65.3399 220.89 65.245 220.587 65.1194C220.283 64.9938 219.995 64.8398 219.722 64.6573C219.449 64.475 219.197 64.2677 218.964 64.0355C218.732 63.8034 218.525 63.5508 218.343 63.2779C218.16 63.0049 218.006 62.7167 217.881 62.4134C217.755 62.1101 217.66 61.7975 217.596 61.4755C217.532 61.1535 217.5 60.8283 217.5 60.5L217.5 48L212.5 48L212.5 43L217.5 43ZM200 73C200.332 73 200.65 73.0634 200.957 73.1903C201.263 73.3172 201.533 73.4978 201.768 73.7322C202.002 73.9667 202.183 74.237 202.31 74.5433C202.437 74.8496 202.5 75.1685 202.5 75.5C202.5 75.8315 202.437 76.1504 202.31 76.4567C202.183 76.763 202.002 77.0334 201.768 77.2678C201.533 77.5022 201.263 77.6828 200.957 77.8097C200.65 77.9366 200.332 78 200 78C199.668 78 199.35 77.9366 199.043 77.8097C198.737 77.6828 198.467 77.5022 198.232 77.2678C197.998 77.0334 197.817 76.763 197.69 76.4567C197.563 76.1504 197.5 75.8315 197.5 75.5C197.5 75.1685 197.563 74.8496 197.69 74.5433C197.817 74.237 197.998 73.9667 198.232 73.7322C198.467 73.4978 198.737 73.3172 199.043 73.1903C199.35 73.0634 199.668 73 200 73ZM190 73C190.332 73 190.65 73.0634 190.957 73.1903C191.263 73.3172 191.533 73.4978 191.768 73.7322C192.002 73.9667 192.183 74.237 192.31 74.5433C192.437 74.8496 192.5 75.1685 192.5 75.5C192.5 75.8315 192.437 76.1504 192.31 76.4567C192.183 76.763 192.002 77.0334 191.768 77.2678C191.533 77.5022 191.263 77.6828 190.957 77.8097C190.65 77.9366 190.332 78 190 78C189.668 78 189.35 77.9366 189.043 77.8097C188.737 77.6828 188.467 77.5022 188.232 77.2678C187.998 77.0333 187.817 76.763 187.69 76.4567C187.563 76.1504 187.5 75.8315 187.5 75.5C187.5 75.1685 187.563 74.8496 187.69 74.5433C187.817 74.237 187.998 73.9667 188.232 73.7322C188.467 73.4978 188.737 73.3172 189.043 73.1903C189.35 73.0634 189.668 73 190 73ZM210 73C210.332 73 210.65 73.0634 210.957 73.1903C211.263 73.3172 211.533 73.4978 211.768 73.7322C212.002 73.9667 212.183 74.237 212.31 74.5433C212.437 74.8496 212.5 75.1685 212.5 75.5C212.5 75.8315 212.437 76.1504 212.31 76.4567C212.183 76.763 212.002 77.0334 211.768 77.2678C211.533 77.5022 211.263 77.6828 210.957 77.8097C210.65 77.9366 210.332 78 210 78C209.668 78 209.35 77.9366 209.043 77.8097C208.737 77.6828 208.467 77.5022 208.232 77.2678C207.998 77.0334 207.817 76.763 207.69 76.4567C207.563 76.1504 207.5 75.8315 207.5 75.5C207.5 75.1685 207.563 74.8496 207.69 74.5433C207.817 74.237 207.998 73.9667 208.232 73.7322C208.467 73.4978 208.737 73.3172 209.043 73.1903C209.35 73.0634 209.668 73 210 73Z" fill-rule="nonzero" fill="#FBC02D"/>
	<g clip-path="url(#clip2_19)">
		<path id="箭头 1" d="M152.818 65.5251L154.793 67.5L73 67.5L73 68.5L154.793 68.5L152.818 70.4749C152.62 70.6729 152.62 70.984 152.818 71.182C153.016 71.38 153.327 71.38 153.525 71.182L156.354 68.3535C156.552 68.1556 156.552 67.8444 156.354 67.6465L153.525 64.818C153.327 64.62 153.016 64.62 152.818 64.818C152.62 65.016 152.62 65.3271 152.818 65.5251Z" fill-rule="evenodd" fill="#000000"/>
	</g>
	<defs>
		<clipPath id="clip2_11">
			<rect id="excel" width="54.000000" height="54.000004" transform="translate(0.000000 36.000000)" fill="white"/>
		</clipPath>
		<clipPath id="clip2_19">
			<rect id="arrow" width="83.000000" height="83.090981" transform="translate(73.000000 24.000000)" fill="white"/>
		</clipPath>
	</defs>
</svg>
