<svg width="641.000000" height="303.000000" viewBox="0 0 641 303" fill="none" xmlns="http://www.w3.org/2000/svg" xmlns:xlink="http://www.w3.org/1999/xlink">
	<desc>
			Created with Pixso.
	</desc>
	<g clip-path="url(#clip2_2)">
		<path id="path" d="M17.0625 162C11.8125 162 7.5 166.312 7.5 171.562L7.5 272.438C7.5 277.688 11.8125 282 17.0625 282L102.938 282C108.188 282 112.5 277.688 112.5 272.438L112.5 200.062L77.0625 162L17.0625 162Z" fill-rule="evenodd" fill="#45B058"/>
		<path id="path" d="M43.875 263.062C43.5 263.062 43.125 262.875 42.9375 262.688L36 253.312L28.875 262.688C28.6875 262.875 28.3125 263.062 27.9375 263.062C27.1875 263.062 26.625 262.5 26.625 261.75C26.625 261.562 26.625 261.188 26.8125 261L34.125 251.437L27.375 242.25C27.1875 242.062 27 241.875 27 241.5C27 240.937 27.5625 240.187 28.3125 240.187C28.875 240.187 29.25 240.375 29.4375 240.75L36 249.375L42.375 240.75C42.5625 240.375 42.9375 240.187 43.3125 240.187C44.0625 240.187 44.8125 240.75 44.8125 241.5C44.8125 241.875 44.625 242.062 44.625 242.25L37.6875 251.25L45 261C45.1875 261.188 45.375 261.562 45.375 261.75C45.375 262.5 44.625 263.062 43.875 263.062ZM62.625 262.875L52.5 262.875C51.375 262.875 50.4375 261.938 50.4375 260.812L50.4375 241.5C50.4375 240.75 51 240.187 51.9375 240.187C52.6875 240.187 53.25 240.75 53.25 241.5L53.25 260.438L62.625 260.438C63.375 260.438 63.9375 261 63.9375 261.562C63.9375 262.312 63.375 262.875 62.625 262.875ZM75.75 263.25C72.375 263.25 69.75 262.125 67.875 260.438C67.5 260.25 67.5 259.875 67.5 259.5C67.5 258.75 67.875 258 68.8125 258C69 258 69.375 258.188 69.5625 258.375C71.0625 259.688 73.3125 260.812 75.9375 260.812C79.875 260.812 81.1875 258.562 81.1875 256.875C81.1875 251.063 67.875 254.25 67.875 246.375C67.875 242.625 71.0625 240 75.5625 240C78.375 240 81 240.938 82.6875 242.438C83.0625 242.625 83.25 243 83.25 243.375C83.25 244.125 82.6875 244.875 81.9375 244.875C81.75 244.875 81.375 244.688 81.1875 244.5C79.5 243.188 77.4375 242.625 75.375 242.625C72.5625 242.625 70.6875 243.938 70.6875 246.188C70.6875 251.25 84 248.25 84 256.688C84 259.875 81.75 263.25 75.75 263.25Z" fill-rule="evenodd" fill="#FFFFFF"/>
		<path id="path" d="M112.5 200.25L112.5 202.125L88.5 202.125C88.5 202.125 76.5 199.688 76.875 189.375C76.875 189.375 77.25 200.25 88.125 200.25L112.5 200.25Z" fill-rule="evenodd" fill="#349C42"/>
		<path id="path" d="M76.875 162L76.875 189.375C76.875 192.375 79.125 200.25 88.5 200.25L112.5 200.25L76.875 162Z" fill-rule="evenodd" fill="#FFFFFF"/>
	</g>
	<path id="ejc-cli" d="M282.626 123.721C282.626 125.373 281.264 126.604 279.462 126.604C277.625 126.604 276.289 125.373 276.289 123.721C276.289 121.989 277.625 120.838 279.462 120.838C281.264 120.838 282.626 121.989 282.626 123.721ZM354.88 123.721C354.88 125.373 353.544 126.604 351.751 126.604C349.914 126.604 348.578 125.373 348.578 123.721C348.578 121.989 349.914 120.838 351.751 120.838C353.544 120.838 354.88 121.989 354.88 123.721ZM345.447 150.035C344.832 150.29 343.935 150.501 342.714 150.501C339.04 150.501 337.748 148.093 337.748 144.349L337.748 121.269L343.004 121.269L343.004 144.604C343.004 145.79 343.575 146.186 344.076 146.186C344.296 146.186 344.436 146.186 344.797 146.115L345.447 150.035ZM271.65 148.269C269.664 149.64 267.115 150.501 264.593 150.501C258.977 150.501 254.582 146.581 254.582 139.954C254.582 133.406 259.152 129.337 263.978 129.337C269.523 129.337 272.406 133.406 272.406 138.987C272.406 139.954 272.292 140.93 272.151 141.396L259.732 141.396C260.163 144.709 262.325 146.432 265.313 146.432C266.966 146.432 268.407 145.931 269.849 145.034L271.65 148.269ZM302.896 148.058C300.989 149.745 298.537 150.501 296.304 150.501C290.732 150.501 286.478 146.616 286.478 139.954C286.478 133.222 291.303 129.337 296.779 129.337C299.257 129.337 301.165 130.304 302.641 131.569L300.127 134.988C299.117 134.127 298.176 133.652 297.025 133.652C293.966 133.652 291.883 136.14 291.883 139.954C291.883 143.733 293.966 146.186 296.884 146.186C298.326 146.186 299.688 145.5 300.804 144.568L302.896 148.058ZM333.928 148.058C332.021 149.745 329.569 150.501 327.336 150.501C321.764 150.501 317.51 146.616 317.51 139.954C317.51 133.222 322.335 129.337 327.811 129.337C330.289 129.337 332.197 130.304 333.673 131.569L331.159 134.988C330.149 134.127 329.208 133.652 328.057 133.652C324.998 133.652 322.915 136.14 322.915 139.954C322.915 143.733 324.998 146.186 327.916 146.186C329.358 146.186 330.72 145.5 331.836 144.568L333.928 148.058ZM282.09 150.501C282.09 154.825 280.429 158.244 275.357 158.244C273.811 158.244 272.765 157.989 271.974 157.708L272.905 153.779C273.45 153.964 273.986 154.069 274.566 154.069C276.289 154.069 276.799 152.918 276.799 150.65L276.799 129.838L282.09 129.838L282.09 150.501ZM354.344 150L349.088 150L349.088 129.838L354.344 129.838L354.344 150ZM264.048 133.441C261.93 133.441 260.058 134.953 259.662 137.906L267.871 137.906C267.871 135.164 266.641 133.441 264.048 133.441ZM314.201 141.58L304.375 141.58L304.375 137.792L314.201 137.792L314.201 141.58Z" fill="#1296DBFF"/>
	<path id="path" d="M336.875 205.625L248.75 205.625L248.75 218.125L336.875 218.125L317.5 237.5L326.25 246.25L360.625 211.875L326.875 177.5L318.125 186.25L336.875 205.625Z" fill-rule="evenodd" fill="#1296DB"/>
	<g clip-path="url(#clip2_13)">
		<path id="path" d="M260 18.75L260 101.25L350 101.25L350 18.75L260 18.75ZM267.5 26.25L342.5 26.25L342.5 33.75L267.5 33.75L267.5 26.25ZM267.5 41.25L342.5 41.25L342.5 93.75L267.5 93.75L267.5 41.25ZM287.071 51.6787L281.675 57.075L292.108 67.5L281.682 77.9287L287.071 83.3212L300.196 70.1963L302.772 67.5L300.196 64.8037L287.071 51.6787ZM305 75L305 82.5L327.5 82.5L327.5 75L305 75Z" fill-rule="nonzero" fill="#1296DB"/>
	</g>
	<g clip-path="url(#clip2_7)">
		<path id="path" d="M511.958 160.375L525.542 160.375L525.542 173.958L511.958 173.958L511.958 207.917C511.958 208.809 511.871 209.692 511.697 210.567C511.523 211.441 511.266 212.291 510.924 213.115C510.583 213.939 510.165 214.722 509.669 215.463C509.174 216.205 508.611 216.891 507.98 217.522C507.349 218.152 506.663 218.715 505.922 219.211C505.18 219.706 504.397 220.125 503.573 220.466C502.749 220.807 501.9 221.065 501.025 221.239C500.15 221.413 499.267 221.5 498.375 221.5C499.267 221.5 500.15 221.587 501.025 221.761C501.9 221.935 502.749 222.193 503.573 222.534C504.397 222.875 505.18 223.294 505.922 223.789C506.663 224.285 507.349 224.848 507.98 225.478C508.611 226.109 509.174 226.795 509.669 227.537C510.165 228.278 510.583 229.061 510.924 229.885C511.266 230.709 511.523 231.559 511.697 232.433C511.871 233.308 511.958 234.191 511.958 235.083L511.958 269.042L525.542 269.042L525.542 282.625L511.958 282.625C504.691 280.791 498.375 276.512 498.375 269.042L498.375 241.875C498.375 240.983 498.288 240.1 498.114 239.225C497.94 238.35 497.682 237.501 497.341 236.677C497 235.853 496.581 235.07 496.086 234.328C495.59 233.587 495.027 232.901 494.397 232.27C493.766 231.639 493.08 231.076 492.338 230.581C491.597 230.085 490.814 229.667 489.99 229.326C489.166 228.984 488.316 228.727 487.442 228.553C486.567 228.379 485.684 228.292 484.792 228.292L478 228.292L478 214.708L484.792 214.708C485.684 214.708 486.567 214.621 487.442 214.447C488.316 214.273 489.166 214.016 489.99 213.674C490.814 213.333 491.597 212.915 492.338 212.419C493.08 211.924 493.766 211.361 494.397 210.73C495.027 210.099 495.59 209.413 496.086 208.671C496.581 207.93 497 207.147 497.341 206.323C497.682 205.499 497.94 204.65 498.114 203.775C498.288 202.9 498.375 202.017 498.375 201.125L498.375 173.958C498.375 173.066 498.462 172.183 498.636 171.308C498.81 170.434 499.068 169.584 499.409 168.76C499.75 167.936 500.169 167.153 500.664 166.412C501.16 165.67 501.723 164.984 502.353 164.353C502.984 163.723 503.67 163.16 504.412 162.664C505.153 162.169 505.936 161.75 506.76 161.409C507.584 161.068 508.434 160.81 509.308 160.636C510.183 160.462 511.066 160.375 511.958 160.375ZM607.042 160.375C607.934 160.375 608.817 160.462 609.692 160.636C610.566 160.81 611.416 161.068 612.24 161.409C613.064 161.75 613.847 162.169 614.588 162.664C615.33 163.16 616.016 163.723 616.646 164.353C617.277 164.984 617.84 165.67 618.336 166.412C618.831 167.153 619.25 167.936 619.591 168.76C619.932 169.584 620.19 170.434 620.364 171.308C620.538 172.183 620.625 173.066 620.625 173.958L620.625 201.125C620.625 202.017 620.712 202.9 620.886 203.775C621.06 204.65 621.318 205.499 621.659 206.323C622 207.147 622.419 207.93 622.914 208.671C623.41 209.413 623.973 210.099 624.603 210.73C625.234 211.361 625.92 211.924 626.662 212.419C627.403 212.915 628.186 213.333 629.01 213.674C629.834 214.016 630.684 214.273 631.558 214.447C632.433 214.621 633.316 214.708 634.208 214.708L641 214.708L641 228.292L634.208 228.292C633.316 228.292 632.433 228.379 631.558 228.553C630.684 228.727 629.834 228.984 629.01 229.326C628.186 229.667 627.403 230.085 626.662 230.581C625.92 231.076 625.234 231.639 624.603 232.27C623.973 232.901 623.41 233.587 622.914 234.329C622.419 235.07 622 235.853 621.659 236.677C621.318 237.501 621.06 238.35 620.886 239.225C620.712 240.1 620.625 240.983 620.625 241.875L620.625 269.042C620.625 269.934 620.538 270.817 620.364 271.692C620.19 272.566 619.932 273.416 619.591 274.24C619.25 275.064 618.831 275.847 618.336 276.588C617.84 277.33 617.277 278.016 616.646 278.647C616.016 279.277 615.33 279.84 614.588 280.336C613.847 280.831 613.064 281.25 612.24 281.591C611.416 281.932 610.566 282.19 609.692 282.364C608.817 282.538 607.934 282.625 607.042 282.625L593.458 282.625L593.458 269.042L607.042 269.042L607.042 235.083C607.042 234.191 607.129 233.308 607.303 232.433C607.477 231.559 607.734 230.709 608.076 229.885C608.417 229.061 608.835 228.278 609.331 227.537C609.826 226.795 610.389 226.109 611.02 225.478C611.651 224.848 612.337 224.285 613.078 223.789C613.82 223.294 614.603 222.875 615.427 222.534C616.251 222.193 617.1 221.935 617.975 221.761C618.85 221.587 619.733 221.5 620.625 221.5C619.733 221.5 618.85 221.413 617.975 221.239C617.1 221.065 616.251 220.807 615.427 220.466C614.603 220.125 613.82 219.706 613.078 219.211C612.337 218.715 611.651 218.152 611.02 217.522C610.389 216.891 609.826 216.205 609.331 215.463C608.835 214.722 608.417 213.939 608.076 213.115C607.734 212.291 607.477 211.441 607.303 210.567C607.129 209.692 607.042 208.809 607.042 207.917L607.042 173.958L593.458 173.958L593.458 160.375L607.042 160.375ZM559.5 241.875C560.401 241.875 561.267 242.047 562.099 242.392C562.931 242.737 563.666 243.227 564.302 243.864C564.939 244.501 565.43 245.236 565.775 246.068C566.119 246.9 566.292 247.766 566.292 248.667C566.292 249.567 566.119 250.434 565.775 251.266C565.43 252.098 564.939 252.832 564.302 253.469C563.666 254.106 562.931 254.597 562.099 254.941C561.267 255.286 560.401 255.458 559.5 255.458C558.599 255.458 557.733 255.286 556.901 254.941C556.069 254.597 555.334 254.106 554.698 253.469C554.061 252.832 553.57 252.098 553.225 251.266C552.881 250.434 552.708 249.567 552.708 248.667C552.708 247.766 552.881 246.9 553.225 246.068C553.57 245.236 554.061 244.501 554.698 243.864C555.334 243.227 556.069 242.737 556.901 242.392C557.733 242.047 558.599 241.875 559.5 241.875ZM532.333 241.875C533.234 241.875 534.1 242.047 534.932 242.392C535.764 242.737 536.499 243.227 537.136 243.864C537.773 244.501 538.263 245.236 538.608 246.068C538.953 246.9 539.125 247.766 539.125 248.667C539.125 249.567 538.953 250.434 538.608 251.266C538.263 252.098 537.773 252.832 537.136 253.469C536.499 254.106 535.764 254.597 534.932 254.941C534.1 255.286 533.234 255.458 532.333 255.458C531.433 255.458 530.566 255.286 529.734 254.941C528.902 254.597 528.168 254.106 527.531 253.469C526.894 252.832 526.403 252.098 526.059 251.266C525.714 250.434 525.542 249.567 525.542 248.667C525.542 247.766 525.714 246.9 526.059 246.068C526.403 245.236 526.894 244.501 527.531 243.864C528.168 243.227 528.902 242.737 529.734 242.392C530.566 242.047 531.433 241.875 532.333 241.875ZM586.667 241.875C587.567 241.875 588.434 242.047 589.266 242.392C590.098 242.737 590.832 243.227 591.469 243.864C592.106 244.501 592.597 245.236 592.941 246.068C593.286 246.9 593.458 247.766 593.458 248.667C593.458 249.567 593.286 250.434 592.941 251.266C592.597 252.098 592.106 252.832 591.469 253.469C590.832 254.106 590.098 254.597 589.266 254.941C588.434 255.286 587.567 255.458 586.667 255.458C585.766 255.458 584.9 255.286 584.068 254.941C583.236 254.597 582.501 254.106 581.864 253.469C581.227 252.832 580.737 252.098 580.392 251.266C580.047 250.434 579.875 249.567 579.875 248.667C579.875 247.766 580.047 246.9 580.392 246.068C580.737 245.236 581.227 244.501 581.864 243.864C582.501 243.227 583.235 242.737 584.068 242.392C584.9 242.047 585.766 241.875 586.667 241.875Z" fill-rule="evenodd" fill="#FBC02D"/>
	</g>
	<defs>
		<clipPath id="clip2_2">
			<rect id="excel" width="120.000000" height="120.000000" transform="translate(0.000000 162.000000)" fill="white"/>
		</clipPath>
		<clipPath id="clip2_13">
			<rect id="terminal-solid" width="120.000000" height="120.000000" transform="translate(245.000000 0.000000)" fill="white"/>
		</clipPath>
		<clipPath id="clip2_7">
			<rect id="json" width="162.999985" height="163.000000" transform="translate(478.000000 140.000000)" fill="white"/>
		</clipPath>
	</defs>
</svg>
