<svg width="710.000000" height="290.000000" viewBox="0 0 710 290" fill="none" xmlns="http://www.w3.org/2000/svg" xmlns:xlink="http://www.w3.org/1999/xlink">
	<desc>
			Created with Pixso.
	</desc>
	<path id="ejc-cli" d="M321.626 123.721C321.626 125.373 320.264 126.604 318.462 126.604C316.625 126.604 315.289 125.373 315.289 123.721C315.289 121.989 316.625 120.838 318.462 120.838C320.264 120.838 321.626 121.989 321.626 123.721ZM393.88 123.721C393.88 125.373 392.544 126.604 390.751 126.604C388.914 126.604 387.578 125.373 387.578 123.721C387.578 121.989 388.914 120.838 390.751 120.838C392.544 120.838 393.88 121.989 393.88 123.721ZM384.447 150.035C383.832 150.29 382.935 150.501 381.714 150.501C378.04 150.501 376.748 148.093 376.748 144.349L376.748 121.269L382.004 121.269L382.004 144.604C382.004 145.79 382.575 146.186 383.076 146.186C383.296 146.186 383.436 146.186 383.797 146.115L384.447 150.035ZM310.65 148.269C308.664 149.64 306.115 150.501 303.593 150.501C297.977 150.501 293.582 146.581 293.582 139.954C293.582 133.406 298.152 129.337 302.978 129.337C308.523 129.337 311.406 133.406 311.406 138.987C311.406 139.954 311.292 140.93 311.151 141.396L298.732 141.396C299.163 144.709 301.325 146.432 304.313 146.432C305.966 146.432 307.407 145.931 308.849 145.034L310.65 148.269ZM341.896 148.058C339.989 149.745 337.537 150.501 335.304 150.501C329.732 150.501 325.478 146.616 325.478 139.954C325.478 133.222 330.303 129.337 335.779 129.337C338.257 129.337 340.165 130.304 341.641 131.569L339.127 134.988C338.117 134.127 337.176 133.652 336.025 133.652C332.966 133.652 330.883 136.14 330.883 139.954C330.883 143.733 332.966 146.186 335.884 146.186C337.326 146.186 338.688 145.5 339.804 144.568L341.896 148.058ZM372.928 148.058C371.021 149.745 368.569 150.501 366.336 150.501C360.764 150.501 356.51 146.616 356.51 139.954C356.51 133.222 361.335 129.337 366.811 129.337C369.289 129.337 371.197 130.304 372.673 131.569L370.159 134.988C369.149 134.127 368.208 133.652 367.057 133.652C363.998 133.652 361.915 136.14 361.915 139.954C361.915 143.733 363.998 146.186 366.916 146.186C368.358 146.186 369.72 145.5 370.836 144.568L372.928 148.058ZM321.09 150.501C321.09 154.825 319.429 158.244 314.357 158.244C312.811 158.244 311.765 157.989 310.974 157.708L311.905 153.779C312.45 153.964 312.986 154.069 313.566 154.069C315.289 154.069 315.799 152.918 315.799 150.65L315.799 129.838L321.09 129.838L321.09 150.501ZM393.344 150L388.088 150L388.088 129.838L393.344 129.838L393.344 150ZM303.048 133.441C300.93 133.441 299.058 134.953 298.662 137.906L306.871 137.906C306.871 135.164 305.641 133.441 303.048 133.441ZM353.201 141.58L343.375 141.58L343.375 137.792L353.201 137.792L353.201 141.58Z" fill="#1296DBFF"/>
	<g clip-path="url(#clip2_2)">
		<path id="path" d="M21.3281 123C14.7656 123 9.375 128.391 9.375 134.953L9.375 261.047C9.375 267.609 14.7656 273 21.3281 273L128.672 273C135.234 273 140.625 267.609 140.625 261.047L140.625 170.578L96.3281 123L21.3281 123Z" fill-rule="evenodd" fill="#45B058"/>
		<path id="path" d="M54.8438 249.328C54.375 249.328 53.9062 249.094 53.6719 248.859L45 237.141L36.0938 248.859C35.8594 249.094 35.3906 249.328 34.9219 249.328C33.9844 249.328 33.2812 248.625 33.2812 247.687C33.2812 247.453 33.2812 246.984 33.5156 246.75L42.6562 234.797L34.2188 223.312C33.9844 223.078 33.75 222.844 33.75 222.375C33.75 221.672 34.4531 220.734 35.3906 220.734C36.0938 220.734 36.5625 220.969 36.7969 221.437L45 232.219L52.9688 221.437C53.2031 220.969 53.6719 220.734 54.1406 220.734C55.0781 220.734 56.0156 221.437 56.0156 222.375C56.0156 222.844 55.7812 223.078 55.7812 223.312L47.1094 234.562L56.25 246.75C56.4844 246.984 56.7188 247.453 56.7188 247.687C56.7188 248.625 55.7812 249.328 54.8438 249.328ZM78.2812 249.094L65.625 249.094C64.2188 249.094 63.0469 247.922 63.0469 246.516L63.0469 222.375C63.0469 221.437 63.75 220.734 64.9219 220.734C65.8594 220.734 66.5625 221.437 66.5625 222.375L66.5625 246.047L78.2812 246.047C79.2188 246.047 79.9219 246.75 79.9219 247.453C79.9219 248.391 79.2188 249.094 78.2812 249.094ZM94.6875 249.562C90.4688 249.562 87.1875 248.156 84.8438 246.047C84.375 245.812 84.375 245.344 84.375 244.875C84.375 243.937 84.8438 243 86.0156 243C86.25 243 86.7188 243.234 86.9531 243.469C88.8281 245.109 91.6406 246.516 94.9219 246.516C99.8438 246.516 101.484 243.703 101.484 241.594C101.484 234.328 84.8438 238.312 84.8438 228.469C84.8438 223.781 88.8281 220.5 94.4531 220.5C97.9688 220.5 101.25 221.672 103.359 223.547C103.828 223.781 104.062 224.25 104.062 224.719C104.062 225.656 103.359 226.594 102.422 226.594C102.188 226.594 101.719 226.359 101.484 226.125C99.375 224.484 96.7969 223.781 94.2188 223.781C90.7031 223.781 88.3594 225.422 88.3594 228.234C88.3594 234.562 105 230.812 105 241.359C105 245.344 102.188 249.562 94.6875 249.562Z" fill-rule="evenodd" fill="#FFFFFF"/>
		<path id="path" d="M140.625 170.812L140.625 173.156L110.625 173.156C110.625 173.156 95.625 170.109 96.0938 157.219C96.0938 157.219 96.5625 170.812 110.156 170.812L140.625 170.812Z" fill-rule="evenodd" fill="#349C42"/>
		<path id="path" d="M96.0938 123L96.0938 157.219C96.0938 160.969 98.9062 170.812 110.625 170.812L140.625 170.812L96.0938 123Z" fill-rule="evenodd" fill="#FFFFFF"/>
	</g>
	<g clip-path="url(#clip2_13)">
		<path id="path" d="M299 18.75L299 101.25L389 101.25L389 18.75L299 18.75ZM306.5 26.25L381.5 26.25L381.5 33.75L306.5 33.75L306.5 26.25ZM306.5 41.25L381.5 41.25L381.5 93.75L306.5 93.75L306.5 41.25ZM326.071 51.6787L320.675 57.075L331.108 67.5L320.682 77.9287L326.071 83.3212L339.196 70.1963L341.772 67.5L339.196 64.8037L326.071 51.6787ZM344 75L344 82.5L366.5 82.5L366.5 75L344 75Z" fill-rule="nonzero" fill="#1296DB"/>
	</g>
	<g clip-path="url(#clip3_1)">
		<path id="path" d="M375.875 205.625L287.75 205.625L287.75 218.125L375.875 218.125L356.5 237.5L365.25 246.25L399.625 211.875L365.875 177.5L357.125 186.25L375.875 205.625Z" fill-rule="evenodd" fill="#1296DB"/>
	</g>
	<g clip-path="url(#clip2_7)">
		<path id="path" d="M573.833 139.5L588.167 139.5L588.167 153.833L573.833 153.833L573.833 189.667C573.833 190.608 573.742 191.54 573.558 192.463C573.374 193.386 573.102 194.282 572.742 195.152C572.382 196.021 571.941 196.847 571.418 197.63C570.895 198.412 570.301 199.136 569.635 199.802C568.97 200.467 568.246 201.062 567.463 201.584C566.681 202.107 565.855 202.549 564.985 202.909C564.116 203.269 563.219 203.541 562.296 203.725C561.373 203.908 560.441 204 559.5 204C560.441 204 561.373 204.092 562.296 204.275C563.219 204.459 564.116 204.731 564.985 205.091C565.855 205.451 566.681 205.893 567.463 206.416C568.246 206.938 568.97 207.533 569.635 208.198C570.301 208.864 570.895 209.588 571.418 210.37C571.941 211.153 572.382 211.979 572.742 212.848C573.102 213.718 573.374 214.614 573.558 215.537C573.742 216.46 573.833 217.392 573.833 218.333L573.833 254.167L588.167 254.167L588.167 268.5L573.833 268.5C566.165 266.565 559.5 262.05 559.5 254.167L559.5 225.5C559.5 224.559 559.408 223.627 559.225 222.704C559.041 221.781 558.769 220.884 558.409 220.015C558.049 219.145 557.607 218.319 557.084 217.537C556.562 216.754 555.967 216.03 555.302 215.365C554.636 214.699 553.912 214.105 553.13 213.582C552.347 213.059 551.521 212.618 550.652 212.258C549.782 211.898 548.886 211.626 547.963 211.442C547.04 211.258 546.108 211.167 545.167 211.167L538 211.167L538 196.833L545.167 196.833C546.108 196.833 547.04 196.742 547.963 196.558C548.886 196.374 549.782 196.102 550.652 195.742C551.521 195.382 552.347 194.941 553.13 194.418C553.912 193.895 554.636 193.301 555.302 192.635C555.967 191.97 556.562 191.246 557.084 190.463C557.607 189.681 558.049 188.855 558.409 187.985C558.769 187.116 559.041 186.219 559.225 185.296C559.408 184.373 559.5 183.441 559.5 182.5L559.5 153.833C559.5 152.892 559.592 151.96 559.775 151.037C559.959 150.114 560.231 149.218 560.591 148.348C560.951 147.479 561.393 146.653 561.916 145.87C562.438 145.088 563.033 144.364 563.698 143.698C564.364 143.033 565.088 142.438 565.87 141.916C566.653 141.393 567.479 140.951 568.348 140.591C569.218 140.231 570.114 139.959 571.037 139.775C571.96 139.592 572.892 139.5 573.833 139.5ZM674.167 139.5C675.108 139.5 676.04 139.592 676.963 139.775C677.886 139.959 678.782 140.231 679.652 140.591C680.521 140.951 681.347 141.393 682.13 141.916C682.912 142.438 683.636 143.033 684.302 143.698C684.967 144.364 685.562 145.088 686.084 145.87C686.607 146.653 687.049 147.479 687.409 148.348C687.769 149.218 688.041 150.114 688.225 151.037C688.408 151.96 688.5 152.892 688.5 153.833L688.5 182.5C688.5 183.441 688.592 184.373 688.775 185.296C688.959 186.219 689.231 187.116 689.591 187.985C689.951 188.855 690.393 189.681 690.916 190.463C691.438 191.246 692.033 191.97 692.698 192.635C693.364 193.301 694.088 193.895 694.87 194.418C695.653 194.941 696.479 195.382 697.348 195.742C698.218 196.102 699.114 196.374 700.037 196.558C700.96 196.742 701.892 196.833 702.833 196.833L710 196.833L710 211.167L702.833 211.167C701.892 211.167 700.96 211.258 700.037 211.442C699.114 211.626 698.218 211.898 697.348 212.258C696.479 212.618 695.653 213.059 694.87 213.582C694.088 214.105 693.364 214.699 692.698 215.365C692.033 216.03 691.438 216.754 690.916 217.537C690.393 218.319 689.951 219.145 689.591 220.015C689.231 220.884 688.959 221.781 688.775 222.704C688.592 223.627 688.5 224.559 688.5 225.5L688.5 254.167C688.5 255.108 688.408 256.04 688.225 256.963C688.041 257.886 687.769 258.782 687.409 259.652C687.049 260.521 686.607 261.347 686.084 262.13C685.562 262.912 684.967 263.636 684.302 264.302C683.636 264.967 682.912 265.562 682.13 266.084C681.347 266.607 680.521 267.049 679.652 267.409C678.782 267.769 677.886 268.041 676.963 268.225C676.04 268.408 675.108 268.5 674.167 268.5L659.833 268.5L659.833 254.167L674.167 254.167L674.167 218.333C674.167 217.392 674.258 216.46 674.442 215.537C674.626 214.614 674.898 213.718 675.258 212.848C675.618 211.979 676.059 211.153 676.582 210.37C677.105 209.588 677.699 208.864 678.365 208.198C679.03 207.533 679.754 206.938 680.537 206.416C681.319 205.893 682.145 205.451 683.015 205.091C683.884 204.731 684.781 204.459 685.704 204.275C686.627 204.092 687.559 204 688.5 204C687.559 204 686.627 203.908 685.704 203.725C684.781 203.541 683.884 203.269 683.015 202.909C682.145 202.549 681.319 202.107 680.537 201.584C679.754 201.062 679.03 200.467 678.365 199.802C677.699 199.136 677.105 198.412 676.582 197.63C676.059 196.847 675.618 196.021 675.258 195.152C674.898 194.282 674.626 193.386 674.442 192.463C674.258 191.54 674.167 190.608 674.167 189.667L674.167 153.833L659.833 153.833L659.833 139.5L674.167 139.5ZM624 225.5C624.95 225.5 625.865 225.682 626.743 226.046C627.621 226.409 628.396 226.927 629.068 227.599C629.74 228.271 630.257 229.046 630.621 229.924C630.985 230.802 631.167 231.716 631.167 232.667C631.167 233.617 630.985 234.531 630.621 235.409C630.257 236.287 629.74 237.062 629.068 237.734C628.396 238.406 627.621 238.924 626.743 239.288C625.865 239.652 624.95 239.833 624 239.833C623.05 239.833 622.135 239.652 621.257 239.288C620.379 238.924 619.604 238.406 618.932 237.734C618.26 237.062 617.743 236.287 617.379 235.409C617.015 234.531 616.833 233.617 616.833 232.667C616.833 231.716 617.015 230.802 617.379 229.924C617.743 229.046 618.26 228.271 618.932 227.599C619.604 226.927 620.379 226.409 621.257 226.046C622.135 225.682 623.05 225.5 624 225.5ZM595.333 225.5C596.284 225.5 597.198 225.682 598.076 226.046C598.954 226.409 599.729 226.927 600.401 227.599C601.073 228.271 601.591 229.046 601.954 229.924C602.318 230.802 602.5 231.716 602.5 232.667C602.5 233.617 602.318 234.531 601.954 235.409C601.591 236.287 601.073 237.062 600.401 237.734C599.729 238.406 598.954 238.924 598.076 239.288C597.198 239.652 596.284 239.833 595.333 239.833C594.383 239.833 593.469 239.652 592.591 239.288C591.713 238.924 590.938 238.406 590.266 237.734C589.594 237.062 589.076 236.287 588.712 235.409C588.349 234.531 588.167 233.617 588.167 232.667C588.167 231.716 588.349 230.802 588.712 229.924C589.076 229.046 589.594 228.271 590.266 227.599C590.938 226.927 591.713 226.409 592.591 226.046C593.469 225.682 594.383 225.5 595.333 225.5ZM652.667 225.5C653.617 225.5 654.531 225.682 655.409 226.046C656.287 226.409 657.062 226.927 657.734 227.599C658.406 228.271 658.924 229.046 659.288 229.924C659.651 230.802 659.833 231.716 659.833 232.667C659.833 233.617 659.651 234.531 659.288 235.409C658.924 236.287 658.406 237.062 657.734 237.734C657.062 238.406 656.287 238.924 655.409 239.288C654.531 239.651 653.617 239.833 652.667 239.833C651.716 239.833 650.802 239.652 649.924 239.288C649.046 238.924 648.271 238.406 647.599 237.734C646.927 237.062 646.409 236.287 646.046 235.409C645.682 234.531 645.5 233.617 645.5 232.667C645.5 231.716 645.682 230.802 646.046 229.924C646.409 229.046 646.927 228.271 647.599 227.599C648.271 226.927 649.046 226.409 649.924 226.046C650.802 225.682 651.716 225.5 652.667 225.5Z" fill-rule="evenodd" fill="#FBC02D"/>
	</g>
	<defs>
		<clipPath id="clip2_2">
			<rect id="excel" width="150.000000" height="150.000000" transform="translate(0.000000 123.000000)" fill="white"/>
		</clipPath>
		<clipPath id="clip2_13">
			<rect id="terminal-solid" width="120.000000" height="120.000000" transform="translate(284.000000 0.000000)" fill="white"/>
		</clipPath>
		<clipPath id="clip3_1">
			<rect id="箭头_向右" width="150.000000" height="150.000000" transform="translate(269.000000 140.000000)" fill="white"/>
		</clipPath>
		<clipPath id="clip2_7">
			<rect id="json" width="171.999985" height="172.000000" transform="translate(538.000000 118.000000)" fill="white"/>
		</clipPath>
	</defs>
</svg>
